<svg width="14" height="12" viewBox="0 0 14 12" fill="none" xmlns="http://www.w3.org/2000/svg">
<path d="M10.7917 0H3.20833C2.35771 0.000866274 1.5422 0.317215 0.940722 0.879636C0.339244 1.44206 0.000926432 2.20462 0 3V9C0.000926432 9.79538 0.339244 10.5579 0.940722 11.1204C1.5422 11.6828 2.35771 11.9991 3.20833 12H10.7917C11.6423 11.9991 12.4578 11.6828 13.0593 11.1204C13.6608 10.5579 13.9991 9.79538 14 9V3C13.9991 2.20462 13.6608 1.44206 13.0593 0.879636C12.4578 0.317215 11.6423 0.000866274 10.7917 0ZM10.7917 1.63636C11.1454 1.63746 11.4865 1.75994 11.7501 1.98055L7.95842 5.526C7.70088 5.756 7.35846 5.88434 7.00233 5.88434C6.64621 5.88434 6.30378 5.756 6.04625 5.526L2.25458 1.98055C2.51699 1.76093 2.85617 1.63853 3.20833 1.63636H10.7917ZM10.7917 10.3636H3.20833C2.82156 10.3636 2.45063 10.22 2.17714 9.96424C1.90365 9.7085 1.75 9.36166 1.75 9V3.82745L4.80608 6.68509C5.09411 6.95453 5.43608 7.16827 5.81247 7.31409C6.18886 7.45992 6.59229 7.53498 6.99971 7.53498C7.40713 7.53498 7.81055 7.45992 8.18694 7.31409C8.56333 7.16827 8.90531 6.95453 9.19333 6.68509L12.25 3.82745V9C12.25 9.36166 12.0964 9.7085 11.8229 9.96424C11.5494 10.22 11.1784 10.3636 10.7917 10.3636Z" fill="#C3C3C3"/>
</svg>
