<svg width="13" height="13" viewBox="0 0 13 13" fill="none" xmlns="http://www.w3.org/2000/svg">
<path d="M9.4747 12.9985C5.05507 13.1226 -2.76892 5.3007 0.993383 1.04963C1.00694 1.03663 1.58563 0.53294 1.58563 0.53294C1.94883 0.197656 2.42638 0.0132904 2.92097 0.0174164C3.41556 0.0215424 3.88997 0.213849 4.2475 0.555146L5.41465 1.81059C5.75845 2.16939 5.94857 2.64794 5.94462 3.14452C5.94067 3.6411 5.74296 4.11657 5.3935 4.46987L5.18306 4.68327C5.80977 6.06918 6.91856 7.18106 8.30376 7.81267L8.52667 7.59602C8.88821 7.25215 9.36836 7.06035 9.86764 7.06035C10.3669 7.06035 10.8471 7.25215 11.2086 7.59602L12.4219 8.71986C12.7812 9.07043 12.9875 9.54849 12.9958 10.0501C13.0042 10.5517 12.8139 11.0364 12.4663 11.3986C12.4663 11.3986 11.9619 11.976 11.9489 11.9895C11.6239 12.3129 11.2379 12.5686 10.8131 12.7418C10.3884 12.915 9.93346 13.0023 9.4747 12.9985ZM2.12582 2.22058C-0.509478 5.47997 7.92574 13.4172 10.7791 10.8592C10.7791 10.8592 11.2802 10.2856 11.2938 10.2726C11.3446 10.2219 11.3732 10.153 11.3732 10.0812C11.3732 10.0094 11.3446 9.94051 11.2938 9.88972L10.08 8.76643C9.91726 8.63103 9.82561 8.62941 9.67483 8.74477L9.05872 9.35029C8.94758 9.45946 8.80738 9.53445 8.65479 9.56633C8.50219 9.59821 8.34364 9.58563 8.198 9.5301C7.11581 9.12794 6.13284 8.49814 5.31574 7.68338C4.49863 6.86861 3.8665 5.88794 3.46218 4.80784C3.40333 4.66122 3.38855 4.50065 3.41967 4.34578C3.45078 4.19091 3.52643 4.04845 3.63736 3.93585L4.23828 3.326C4.26565 3.30173 4.28764 3.27201 4.30285 3.23877C4.31806 3.20552 4.32615 3.16946 4.32661 3.13291C4.32707 3.09636 4.31989 3.06012 4.30552 3.0265C4.29115 2.99288 4.26991 2.96262 4.24316 2.93767L3.07493 1.68223C3.02324 1.63909 2.957 1.6173 2.88975 1.62133C2.82251 1.62536 2.75934 1.65489 2.71319 1.70389C2.70017 1.71743 2.12582 2.22058 2.12582 2.22058ZM13 5.14526C12.9984 3.78113 12.4551 2.47333 11.4892 1.50875C10.5233 0.544171 9.21365 0.00157677 7.84764 0C7.63188 0 7.42496 0.0855928 7.27239 0.237949C7.11982 0.390305 7.03411 0.596945 7.03411 0.812409C7.03411 1.02787 7.11982 1.23451 7.27239 1.38687C7.42496 1.53922 7.63188 1.62482 7.84764 1.62482C8.78226 1.62596 9.67826 1.99723 10.3391 2.6572C11 3.31716 11.3718 4.21193 11.3729 5.14526C11.3729 5.36072 11.4587 5.56736 11.6112 5.71972C11.7638 5.87207 11.9707 5.95767 12.1865 5.95767C12.4022 5.95767 12.6092 5.87207 12.7617 5.71972C12.9143 5.56736 13 5.36072 13 5.14526ZM10.2882 5.14526C10.2875 4.49908 10.0302 3.87958 9.57261 3.42267C9.11506 2.96576 8.49471 2.70875 7.84764 2.70803C7.63188 2.70803 7.42496 2.79362 7.27239 2.94598C7.11982 3.09833 7.03411 3.30497 7.03411 3.52044C7.03411 3.7359 7.11982 3.94254 7.27239 4.0949C7.42496 4.24725 7.63188 4.33285 7.84764 4.33285C8.06341 4.33285 8.27033 4.41844 8.4229 4.5708C8.57546 4.72315 8.66117 4.92979 8.66117 5.14526C8.66117 5.36072 8.74688 5.56736 8.89945 5.71972C9.05202 5.87207 9.25894 5.95767 9.4747 5.95767C9.69046 5.95767 9.89739 5.87207 10.05 5.71972C10.2025 5.56736 10.2882 5.36072 10.2882 5.14526Z" fill="#C4C4C4"/>
</svg>
