<svg width="45" height="45" viewBox="0 0 45 45" fill="none" xmlns="http://www.w3.org/2000/svg">
<circle cx="22.5" cy="22.5" r="22.5" fill="#039BE5"/>
<path d="M31.6084 13.3287C31.4502 13.1785 31.2562 13.0747 31.0464 13.028C30.8367 12.9812 30.6187 12.9932 30.4149 13.0628L12.8293 19.0746C12.3501 19.2384 12.0251 19.682 12.0014 20.2048C11.9777 20.7275 12.2611 21.2009 12.7234 21.4107L17.0724 23.384L18.3846 29.6953C18.4391 29.9575 18.5674 30.191 18.8392 30.2629C19.1142 30.3355 19.3084 30.1797 19.5136 30.0204L22.741 27.5142L26.514 30.7161C26.7337 30.9027 27.0023 31 27.2762 31C27.4089 30.9999 27.5407 30.9772 27.6663 30.9329C28.0634 30.7932 28.3578 30.4571 28.4537 30.0338L31.9681 14.5385C32.0171 14.3219 32.0096 14.0957 31.9464 13.8831C31.8832 13.6705 31.7665 13.4791 31.6084 13.3287ZM19.7947 24.5148C19.7926 24.52 19.7905 24.526 19.7885 24.5331L19.061 27.1691L18.2491 23.2641L23.8318 20.0473L19.9286 24.2798C19.8674 24.3466 19.8216 24.4269 19.7947 24.5148ZM20.0256 28.101L20.6721 25.7585L21.8046 26.7196L20.0256 28.101ZM30.8246 14.2596L27.3103 29.7549C27.3086 29.7626 27.3062 29.7732 27.2891 29.7792C27.272 29.7852 27.2637 29.7784 27.2579 29.7733L23.1293 26.2697L23.129 26.2694L21.2161 24.6461L27.3616 17.9822C27.4587 17.8769 27.5162 17.7389 27.5236 17.5934C27.531 17.4479 27.4879 17.3044 27.402 17.189C27.3162 17.0737 27.1932 16.9941 27.0556 16.9647C26.918 16.9353 26.7747 16.958 26.6519 17.0288L17.5522 22.272L13.1942 20.2946C13.181 20.2886 13.1736 20.2852 13.1747 20.262C13.1758 20.2387 13.1833 20.2361 13.1971 20.2314L30.7826 14.2197C30.7911 14.2168 30.8007 14.2135 30.8149 14.2268C30.829 14.2403 30.8267 14.2505 30.8246 14.2596Z" fill="white"/>
</svg>
