<svg width="45" height="45" viewBox="0 0 45 45" fill="none" xmlns="http://www.w3.org/2000/svg">
<circle cx="22.5" cy="22.5" r="22.5" fill="#58C549"/>
<path d="M27.2019 23.809C27.021 23.7191 25.8455 23.1798 25.6647 23.0899C25.4838 23 25.303 23 25.1221 23.1798C24.9413 23.3596 24.5796 23.8989 24.3987 24.0787C24.3083 24.2584 24.1275 24.2584 23.9466 24.1685C23.3136 23.8989 22.6807 23.5393 22.1381 23.0899C21.686 22.6404 21.2339 22.1011 20.8722 21.5618C20.7818 21.382 20.8722 21.2022 20.9626 21.1124C21.053 21.0225 21.1435 20.8427 21.3243 20.7528C21.4147 20.6629 21.5052 20.4831 21.5052 20.3933C21.5956 20.3034 21.5956 20.1236 21.5052 20.0337C21.4147 19.9438 20.9626 18.8652 20.7818 18.4157C20.6914 17.7865 20.5105 17.7865 20.3297 17.7865H19.8775C19.6967 17.7865 19.4254 17.9663 19.335 18.0562C18.7925 18.5955 18.5212 19.2247 18.5212 19.9438C18.6116 20.7528 18.8829 21.5618 19.4254 22.2809C20.4201 23.7191 21.686 24.8876 23.2232 25.6067C23.6753 25.7865 24.037 25.9663 24.4891 26.0562C24.9413 26.236 25.3934 26.236 25.9359 26.1461C26.5689 26.0562 27.1114 25.6067 27.4731 25.0674C27.654 24.7079 27.654 24.3483 27.5636 23.9888L27.2019 23.809ZM29.4625 15.6292C25.9359 12.1236 20.2392 12.1236 16.7127 15.6292C13.8192 18.5056 13.2766 22.9101 15.2659 26.4157L14 31L18.7925 29.7416C20.1488 30.4607 21.5956 30.8202 23.0424 30.8202C28.0157 30.8202 31.9943 26.8652 31.9943 21.9213C32.0847 19.5843 31.0901 17.3371 29.4625 15.6292ZM27.021 28.2135C25.8455 28.9326 24.4891 29.382 23.0424 29.382C21.686 29.382 20.4201 29.0225 19.2446 28.3933L18.9733 28.2135L16.1702 28.9326L16.8936 26.236L16.7127 25.9663C14.5425 22.3708 15.6276 17.8764 19.1542 15.6292C22.6807 13.382 27.2019 14.5506 29.372 17.9663C31.5422 21.4719 30.5475 26.0562 27.021 28.2135Z" fill="white"/>
</svg>
